<?xml version="1.0" encoding="UTF-8" standalone="no"?>
<svg
   viewBox="0 0 512 512"
   width="512"
   height="512"
   version="1.1"
   id="svg1"
   sodipodi:docname="icon-sync.svg"
   xml:space="preserve"
   inkscape:version="1.4.3 (0d15f75042, 2025-12-25)"
   xmlns:inkscape="http://www.inkscape.org/namespaces/inkscape"
   xmlns:sodipodi="http://sodipodi.sourceforge.net/DTD/sodipodi-0.dtd"
   xmlns="http://www.w3.org/2000/svg"
   xmlns:svg="http://www.w3.org/2000/svg"><defs
     id="defs1" /><sodipodi:namedview
     id="namedview1"
     pagecolor="#ffffff"
     bordercolor="#000000"
     borderopacity="0.25"
     inkscape:showpageshadow="2"
     inkscape:pageopacity="0.0"
     inkscape:pagecheckerboard="0"
     inkscape:deskcolor="#d1d1d1"
     inkscape:zoom="1.4142136"
     inkscape:cx="267.63991"
     inkscape:cy="224.85995"
     inkscape:window-width="1524"
     inkscape:window-height="695"
     inkscape:window-x="1027"
     inkscape:window-y="736"
     inkscape:window-maximized="1"
     inkscape:current-layer="svg1" /><path
     d="M 360.51592,186.07151 C 360.34654,124.61124 307.67336,70.886448 244.72388,70.872333 c -14.73749,-0.61677 -111.7719,-0.140731 -125.63076,0 L 32.28085,162.62515 c 0.420513,25.03331 0.01412,73.59985 0,134.97543 0,61.5873 50.816943,110.92208 108.24008,110.63976 77.20754,-1.69935 108.35301,-75.9925 106.77909,-119.98443 -0.28937,-33.43332 34.18145,-98.40135 113.23002,-101.88797 l 1.43981,-0.36701 c 63.09769,0 114.23929,49.13715 114.23929,110.72446 0,61.5873 -51.1416,111.51495 -114.23929,111.51495 h -220.7996"
     fill="none"
     stroke="#f2f3f5"
     stroke-linejoin="round"
     stroke-width="49.4053px"
     id="path1"
     style="stroke:#466372;stroke-opacity:1" /><path
     style="fill:#466372;fill-opacity:1;stroke:none;stroke-width:13.2237;stroke-dasharray:none;stroke-opacity:1"
     d="m 239.71538,401.55015 c -103.80645,3.99255 18.06426,25.80714 21.95905,-131.75436 1.21196,-49.02915 92.47318,-102.5512 161.69849,-58.89018 69.22532,43.66101 41.09052,131.81689 18.96467,158.70408 -39.90168,48.48826 -202.62221,31.94046 -202.62221,31.94046 z"
     id="path2"
     sodipodi:nodetypes="cszsc" /><path
     d="m 434.46654,277.26874 h 2.57291 c 4.33159,0 7.81643,-3.48487 7.81643,-7.81644 v -46.89879 c 0,-3.15914 -1.88896,-6.02518 -4.82014,-7.23023 -2.93117,-1.20504 -6.28575,-0.52111 -8.53292,1.69356 l -16.838,16.87051 c -14.42785,-11.95263 -32.99195,-19.15031 -53.18451,-19.15031 -42.01347,0 -76.76415,31.07045 -82.52876,71.48809 -0.81425,5.69947 3.12652,10.97556 8.82606,11.7898 5.69947,0.81419 10.97561,-3.15909 11.78982,-8.82608 4.33163,-30.32137 30.41907,-53.60793 61.91288,-53.60793 14.46049,0 27.74842,4.88532 38.33321,13.12514 L 384.604,263.9156 c -2.24723,2.24721 -2.89855,5.6018 -1.69355,8.53296 1.20505,2.93118 4.07106,4.82018 7.23019,4.82018 z m 9.57516,32.73145 c 0.81419,-5.69951 -3.15914,-10.97562 -8.82613,-11.78983 -5.66693,-0.81419 -10.97559,3.15907 -11.78978,8.82605 -4.33165,30.28879 -30.4191,53.57531 -61.9129,53.57531 -14.46046,0 -27.74845,-4.88528 -38.33325,-13.12507 l 15.17699,-15.17699 c 2.24723,-2.24722 2.89856,-5.6018 1.69355,-8.53296 -1.20505,-2.93117 -4.07105,-4.82016 -7.2302,-4.82016 h -46.89879 c -4.3316,0 -7.81645,3.48486 -7.81645,7.81643 v 46.89879 c 0,3.15913 1.88895,6.02516 4.82017,7.23024 2.93115,1.20502 6.28573,0.5211 8.53294,-1.69359 l 16.87053,-16.8705 c 14.39529,11.95265 32.95939,19.15032 53.15193,19.15032 42.01346,0 76.76416,-31.07046 82.52877,-71.48809 z"
     id="path1-5"
     style="fill:#ffffff;fill-opacity:1;stroke:none;stroke-width:18.1533;stroke-dasharray:none;stroke-opacity:1" /></svg>
