<?xml version="1.0" encoding="UTF-8" standalone="no"?>
<svg
   viewBox="0 0 512 512"
   width="512"
   height="512"
   version="1.1"
   id="svg1"
   sodipodi:docname="icon-ok.svg"
   xml:space="preserve"
   inkscape:version="1.4.3 (0d15f75042, 2025-12-25)"
   xmlns:inkscape="http://www.inkscape.org/namespaces/inkscape"
   xmlns:sodipodi="http://sodipodi.sourceforge.net/DTD/sodipodi-0.dtd"
   xmlns="http://www.w3.org/2000/svg"
   xmlns:svg="http://www.w3.org/2000/svg"><defs
     id="defs1" /><sodipodi:namedview
     id="namedview1"
     pagecolor="#ffffff"
     bordercolor="#000000"
     borderopacity="0.25"
     inkscape:showpageshadow="2"
     inkscape:pageopacity="0.0"
     inkscape:pagecheckerboard="0"
     inkscape:deskcolor="#d1d1d1"
     inkscape:zoom="1.4142136"
     inkscape:cx="322.08713"
     inkscape:cy="301.93459"
     inkscape:window-width="1524"
     inkscape:window-height="1397"
     inkscape:window-x="1027"
     inkscape:window-y="34"
     inkscape:window-maximized="1"
     inkscape:current-layer="svg1" /><path
     d="M 360.51592,186.07151 C 360.34654,124.61124 307.67336,70.886448 244.72388,70.872333 c -14.73749,-0.61677 -111.7719,-0.140731 -125.63076,0 L 32.28085,162.62515 c 0.420513,25.03331 0.01412,73.59985 0,134.97543 0,61.5873 50.816943,110.92208 108.24008,110.63976 77.20754,-1.69935 108.35301,-75.9925 106.77909,-119.98443 -0.28937,-33.43332 34.18145,-98.40135 113.23002,-101.88797 l 1.43981,-0.36701 c 63.09769,0 114.23929,49.13715 114.23929,110.72446 0,61.5873 -51.1416,111.51495 -114.23929,111.51495 h -220.7996"
     fill="none"
     stroke="#f2f3f5"
     stroke-linejoin="round"
     stroke-width="49.4053px"
     id="path1"
     style="stroke:#466372;stroke-opacity:1" /><path
     style="fill:#466372;fill-opacity:1;stroke:none;stroke-width:13.2237;stroke-dasharray:none;stroke-opacity:1"
     d="m 239.71538,401.55015 c -103.80645,3.99255 18.06426,25.80714 21.95905,-131.75436 1.21196,-49.02915 92.47318,-102.5512 161.69849,-58.89018 69.22532,43.66101 41.09052,131.81689 18.96467,158.70408 -39.90168,48.48826 -202.62221,31.94046 -202.62221,31.94046 z"
     id="path2"
     sodipodi:nodetypes="cszsc" /><path
     d="m 423.67341,241.49216 c 4.45739,3.24171 5.45481,9.47579 2.21311,13.93316 l -79.7961,109.7196 c -1.71437,2.36895 -4.36386,3.83394 -7.29386,4.08332 -2.93002,0.24932 -5.76653,-0.84164 -7.82372,-2.89886 l -39.89807,-39.89802 c -3.8963,-3.8963 -3.8963,-10.22391 0,-14.1202 3.89628,-3.89628 10.22385,-3.89628 14.12014,0 l 31.63793,31.63791 72.93858,-100.27499 c 3.24174,-4.45738 9.47581,-5.45483 13.93316,-2.2131 z"
     id="path1-2"
     style="fill:#ffffff;fill-opacity:1;stroke-width:0.311704" /></svg>
